<?xml version="1.0" encoding="utf-8"?>
<!-- Generator: Adobe Illustrator 18.0.0, SVG Export Plug-In . SVG Version: 6.00 Build 0)  -->
<!DOCTYPE svg PUBLIC "-//W3C//DTD SVG 1.1//EN" "http://www.w3.org/Graphics/SVG/1.1/DTD/svg11.dtd">
<svg version="1.1" xmlns="http://www.w3.org/2000/svg" xmlns:xlink="http://www.w3.org/1999/xlink" x="0px" y="0px"
	 viewBox="0 0 480 640" enable-background="new 0 0 480 640" xml:space="preserve">
<g id="Layer_2" display="none">
	<rect x="45.8" y="55.2" display="inline" fill="#1D1D1B" width="414.3" height="537.6"/>
</g>
<g id="Layer_1">
	<g>
		
			<image overflow="visible" opacity="0.75" width="232" height="509" xlink:href="DD784710D766501C.png"  transform="matrix(1 0 0 1 130 59)">
		</image>
		<g>
			<g>
				<path fill="#1D1D1B" d="M254.2,74.4c0.7,2.7,1.6,5.4,1.9,8.1c1.5,11.5,3.1,23,4.2,34.6c2.2,24.2,4.3,48.3,5.9,72.5
					c1.5,22.9,1.8,45.9,3.4,68.8c0.4,6.4-1.5,11.1-4.8,15.9c-6.9,10.2-13.6,20.4-20.1,30.8c-0.7,1.2-0.1,3.5,0.3,5.1
					c0.6,2.1,2.2,4,2.3,6c0.2,14.8,0,29.7,0.2,44.5c0.1,7.1-1.4,13.4-5,19.4c-7.9,13.3-11.3,27.3-5.6,42.3c1.8,4.8,4.8,9.1,7.1,13.7
					c8.1,16,8.1,44.7-7.5,61.8c-9.5,10.4-20.4,16.8-34.8,15.5c-6-0.6-12-1.9-18.3-3c-14.4,16.2-15.6,17.2-19.8,35.9
					c-1.6,7.1-4,8.1-11.7,4.3c-2.3-1.1-4.6-3.1-5.8-5.3c-0.9-1.7-0.5-4.6,0.4-6.4c0.9-1.7,3.1-2.9,4.9-4.1
					c9.5-6.2,15.7-15,20.4-25.2c1.8-4.1,2.1-7.2-1.5-10.5c-2-1.9-3.5-4.4-4.7-7c-7.3-15.6-8.2-31.7-3.5-48.1
					c3.2-11.1,9.4-20,20-25.4c5.1-2.6,10.2-5.5,15.1-8.5c15.2-9.1,24.8-21.8,25.2-40.3c0.3-17.8,0.7-35.6,1-53.5
					c0.1-7.1,0-14.2,0-22.5c4,1.6,6.3,2.5,9.1,3.6c5-74.9,12.5-149.1,19.5-223.3C252.6,74.4,253.4,74.4,254.2,74.4z M188,501.2
					c13.1,7.1,29.7,3.4,40.1-8.6c13.2-15.1,16-36.4,7.1-53.9c-8.4-16.7-28.7-21.7-44.7-12.2c-12.3,7.3-22.2,26.6-21.3,36.8
					C169.9,481.2,174.3,493.8,188,501.2z M259.9,253.3c-0.1-5.2-4-8.9-9.3-8.9c-5.3,0-9.5,4.3-9.2,9.5c0.3,5,4.5,8.8,9.6,8.7
					C256.1,262.5,260,258.5,259.9,253.3z"/>
				<path fill="#1D1D1B" d="M273.8,299.8c6.1-3.4,6.4-3.2,6.6,3.8c0.7,22.3,1.4,44.6,2.1,66.9c0.4,13.1,4,25.1,14.4,33.7
					c6.2,5.1,13.3,9.2,20.3,13.2c9.7,5.6,19,11,23.9,22c5.9,13.2,6.6,26.6,4.4,40.4c-4.9,31.8-34.5,42-57.9,33.7
					c-16-5.7-25.2-18.6-29.2-35.2c-3.9-16.4-2-31.8,7.1-46.3c4.5-7.1,6-15.4,5.9-23.9c-0.2-9.6-4.7-17.5-9.1-25.5
					c-3.2-5.8-4.9-11.9-5-18.4c-0.1-15.3-0.1-30.6-0.1-46c0-1.3,0-3.2,0.7-3.7c4.9-3.2,2.7-6.7,0.9-10.3c-1.4-2.7-2.7-5.3-3.8-8.1
					c-0.5-1.3-0.8-3.2-0.2-4.2c4.7-7.3,9.6-14.5,15.1-22.8c0.6,11.2,1.1,21.1,1.7,31.3C272.7,300.3,273.3,300.1,273.8,299.8z
					 M319.7,432.3c-17.5-14.7-41.4-8.8-50.3,12.2c-7.7,18-2.7,40.5,11.8,53.5c20.2,18,48,8.9,54.2-17.9c0.8-3.5,1-7.2,1.3-9.5
					C336.2,454.4,331.1,441.8,319.7,432.3z"/>
				<path fill="#1D1D1B" d="M241.4,254c-0.3-5.2,3.9-9.5,9.2-9.5c5.3,0,9.2,3.7,9.3,8.9c0.1,5.2-3.8,9.2-8.9,9.3
					C245.8,262.8,241.6,259,241.4,254z M250.8,261.5c4.4-0.2,7.7-3.7,7.6-8.1c-0.1-4.4-3.7-8-8-7.8c-4.2,0.2-7.9,4-7.8,8.1
					C242.8,257.9,246.7,261.6,250.8,261.5z"/>
				<path fill="#1D1D1B" stroke="#FFFFFF" stroke-miterlimit="10" d="M242.6,253.7c0.1,4.2,4.1,7.9,8.1,7.8c4.4-0.2,7.7-3.7,7.6-8.1
					c-0.1-4.4-3.7-8-8-7.8C246.2,245.8,242.5,249.6,242.6,253.7z"/>
			</g>
		</g>
	</g>
</g>
</svg>
