<?xml version="1.0" encoding="utf-8"?>
<!-- Generator: Adobe Illustrator 18.1.1, SVG Export Plug-In . SVG Version: 6.00 Build 0)  -->
<svg version="1.2" baseProfile="tiny" id="Livello_1"
	 xmlns="http://www.w3.org/2000/svg" xmlns:xlink="http://www.w3.org/1999/xlink" x="0px" y="0px" viewBox="0 0 800 800"
	 xml:space="preserve">
<g>
	<path fill="#B6CAF3" d="M484.7,536.3c-40.5,39.7-89.3,59.3-146.4,58.8c-57.1-0.5-105.5-21.2-145.2-61.8
		c-39.7-40.7-59.3-89.4-58.8-146.1c0.5-57.1,21.1-105.6,61.6-145.5c40.5-39.9,89.3-59.6,146.4-59.1c57.1,0.5,105.5,21.3,145.2,62.1
		l-28.6,28.1c-32.1-32.7-71.1-49.3-117-49.7c-45.5-0.4-84.6,15.4-117.3,47.5c-32.7,32.1-49.3,71.1-49.7,117
		c-0.4,45.5,15.4,84.6,47.5,117.3c32.1,32.7,70.9,49.3,116.4,49.7c45.9,0.4,85.2-15.4,117.9-47.5L484.7,536.3z"/>
	<path fill="#8B95D9" d="M700.2,634.5c-3.6-3.9-7.8-7.1-12.5-9.5c-4.6-2.4-9.5-4-14.6-4.8c-20.2-3-40,7.8-49.2,26.9
		c-5.7,11.9-6.6,25.4-2.6,38c2.3,7.3,6.1,13.8,11.2,19.2l0,0c3.6,3.9,7.9,7.1,12.6,9.6c4.6,2.4,9.5,4,14.6,4.8
		c20.2,3,40-7.8,49.2-26.9C717.9,672.7,714.5,649.7,700.2,634.5z M702.3,643.6c0.9,0.1,1.8,0.3,2.8,0.5l0.7,0.1l0.4,0.6
		c1.9,3.1,3.5,6.5,4.6,10l0.8,2.6l-2.6-0.3c-21.5-2.1-34,5.8-39.6,10.8l-0.8,0.7l-1-0.5c-1.8-0.9-3.5-2.2-5-3.8
		c-1.7-1.8-3.2-4-4.4-6.7l-0.5-1.1l0.8-0.9C662.3,651.8,676.2,639.6,702.3,643.6z M654.4,627.7c7-2.9,14.6-3.9,22-2.8
		c4.6,0.7,9,2.1,13.1,4.3c1.2,0.6,2.5,1.4,3.8,2.2l4.9,3.2l-5.8,0c-17.1,0-28.5,6.3-35.2,11.5l-2.2,1.7l-0.5-2.8
		c-1-6.1-1.2-12-1.2-15.9l0-1.2L654.4,627.7z M632.8,647.7l0.3-0.6c2.6-4.7,5.9-8.9,9.8-12.3l2.6-2.2l0.2,3.5
		c0.5,8.7,2.6,24.6,11.4,34.1c2.5,2.7,5.4,4.7,8.7,6l0.8,0.3l0.2,0.9c1.1,4.4,1.6,8.8,1.6,13.1l0,2.2l-2.1-0.5
		c-4.2-1-10.6-3.6-17-10.1c-0.2-0.2-0.4-0.4-0.6-0.6c-7.3-7.7-12.6-18.9-16-33.1L632.8,647.7z M662,713.3c-3.8-0.8-7.5-2.1-10.9-3.9
		c-4.2-2.2-8.1-5.1-11.3-8.6c-4.6-4.9-8-10.7-10.1-17.3c-1.6-5.2-2.4-10.5-2.2-15.9l0.3-7.6l2.9,7c3.4,8.1,7.6,14.9,12.7,20.3
		c8.2,8.7,16.7,11.9,22.5,13.1l1.7,0.4l-0.4,1.8c-0.8,3.5-1.9,6.8-3.4,10l-0.6,1.2L662,713.3z M686.9,710.7c-4,1.8-8.3,2.9-12.6,3.3
		l-2.7,0.3l1-2.6c2.9-7.9,5.6-20.6,1.9-36.3l-0.3-1.1l0.8-0.7c2.3-1.9,6.2-4.7,12.2-6.6l1.5-0.5l0.6,1.5c2.7,7,6.1,21.8-1.5,41.7
		l-0.3,0.7L686.9,710.7z M699.1,698c2.4-13.5,0.3-24.2-1.9-30.8l-0.7-2.2l2.2-0.1c4.1-0.2,8.4,0,13,0.6l1.4,0.2l0.1,1.5
		c0.4,7.7-1.2,15.4-4.5,22.2c-1.7,3.6-4,7-6.6,10.1l-3.9,4.5L699.1,698z"/>
	<path fill="#A1A3DE" d="M604.5,637.8c-68.3,67-150.6,100.1-246.8,99.1c-96.3-0.9-177.9-35.7-244.9-104.3
		c-67-68.6-100-150.7-99.1-246.4c0.9-96.3,35.5-178.1,103.8-245.4C185.7,73.5,268,40.3,364.3,41.2c96.3,0.9,177.9,35.9,244.9,104.8
		l-48.3,47.3c-54.1-55.2-119.9-83.1-197.3-83.8c-76.8-0.7-142.7,26-197.9,80.1c-55.2,54.1-83.1,119.9-83.8,197.3
		c-0.7,76.8,26,142.7,80.1,197.9c54.1,55.2,119.6,83.1,196.3,83.8c77.4,0.7,143.7-25.9,198.9-80.1L604.5,637.8z"/>
</g>
</svg>
